<?xml version="1.0" standalone="no"?>
<!DOCTYPE svg PUBLIC "-//W3C//DTD SVG 20010904//EN"
 "http://www.w3.org/TR/2001/REC-SVG-20010904/DTD/svg10.dtd">
<svg version="1.0" xmlns="http://www.w3.org/2000/svg"
 width="2000.000000pt" height="1500.000000pt" viewBox="0 0 2000.000000 1500.000000"
 preserveAspectRatio="xMidYMid meet">

<g transform="translate(0.000000,1500.000000) scale(0.100000,-0.100000)"
fill="#000000" stroke="none">
<path d="M13070 4995 l0 -1565 120 0 c116 0 120 1 125 23 3 12 16 72 30 132
32 136 34 145 44 145 4 0 30 -27 56 -60 91 -114 242 -211 392 -252 65 -18 105
-21 248 -21 202 0 275 15 425 90 79 39 111 63 186 138 167 166 259 373 295
668 17 145 6 495 -19 615 -90 416 -313 664 -667 743 -98 22 -362 17 -458 -9
-150 -41 -297 -136 -394 -254 -24 -29 -43 -56 -43 -60 0 -5 -7 -8 -16 -8 -12
0 -14 5 -8 18 4 9 9 288 12 620 l4 602 -166 0 -166 0 0 -1565z m1123 380 c223
-47 363 -201 427 -465 28 -121 44 -306 37 -450 -15 -306 -83 -507 -217 -640
-106 -106 -223 -150 -403 -150 -252 0 -427 86 -519 256 -92 171 -135 482 -108
789 36 413 167 601 460 660 88 18 240 18 323 0z"/>
<path d="M5385 6450 c-82 -12 -132 -56 -154 -135 -25 -90 -8 -176 45 -235 43
-48 88 -64 164 -58 116 8 180 84 180 211 0 69 -17 126 -48 160 -39 44 -117 67
-187 57z"/>
<path d="M2648 6364 c-5 -4 -8 -666 -8 -1471 l0 -1464 618 4 c582 3 622 5 710
25 187 42 308 93 421 178 76 57 169 170 210 257 102 214 103 535 1 725 -95
179 -259 282 -552 346 -41 9 -34 22 20 35 144 36 266 103 350 196 61 66 95
126 130 225 24 69 26 88 26 230 0 141 -3 162 -27 235 -36 106 -70 163 -142
236 -108 109 -306 187 -569 225 -86 12 -233 17 -646 21 -294 3 -538 2 -542 -3z
m1122 -308 c205 -33 323 -95 395 -206 54 -86 75 -226 52 -356 -35 -193 -141
-302 -348 -355 -78 -21 -113 -23 -481 -26 l-398 -5 0 488 0 487 343 -6 c231
-4 373 -11 437 -21z m-5 -1246 c367 -42 545 -211 545 -520 -1 -280 -140 -469
-395 -534 -109 -27 -251 -36 -590 -36 l-335 0 0 550 0 550 343 0 c188 0 383
-5 432 -10z"/>
<path d="M6447 6128 c-2 -7 -32 -115 -67 -239 l-62 -225 -157 -65 -156 -65 -3
-82 -3 -82 160 0 160 0 3 -752 c3 -681 5 -759 21 -813 61 -209 187 -333 397
-391 48 -14 102 -18 210 -18 141 0 214 9 313 40 l47 16 0 130 c0 110 -2 129
-14 125 -48 -19 -185 -39 -271 -40 -132 -3 -189 17 -266 93 -42 42 -61 71 -80
120 l-23 65 -4 713 -3 712 326 0 325 0 0 130 0 130 -325 0 -325 0 0 255 0 255
-99 0 c-70 0 -100 -4 -104 -12z"/>
<path d="M9237 6128 c-2 -7 -32 -115 -67 -239 l-62 -225 -157 -65 -156 -65 -3
-82 -3 -82 160 0 160 0 3 -757 3 -758 27 -81 c66 -193 186 -305 388 -360 48
-14 102 -18 210 -18 141 0 214 9 313 40 l47 16 0 130 c0 110 -2 129 -14 125
-102 -39 -340 -53 -423 -24 -109 38 -191 145 -212 278 -7 40 -11 319 -11 737
l0 672 325 0 325 0 0 130 0 130 -325 0 -325 0 0 255 0 255 -99 0 c-70 0 -100
-4 -104 -12z"/>
<path d="M16243 5656 c-352 -67 -611 -314 -719 -686 -44 -149 -58 -261 -57
-455 0 -263 36 -434 129 -615 182 -354 528 -527 1014 -507 219 10 356 37 543
109 l77 29 0 146 c0 134 -1 145 -17 140 -10 -3 -68 -23 -129 -45 -200 -72
-289 -87 -529 -87 -202 1 -213 2 -291 28 -267 90 -426 324 -450 663 l-7 94
762 0 761 0 0 133 c0 278 -38 464 -130 635 -114 211 -274 337 -515 404 -92 26
-339 33 -442 14z m379 -286 c128 -39 245 -156 298 -297 27 -70 46 -163 56
-260 l7 -73 -582 0 -581 0 0 34 c0 51 44 213 77 286 76 166 218 287 373 319
30 6 64 13 75 15 45 11 213 -4 277 -24z"/>
<path d="M5250 4530 l0 -1100 165 0 165 0 0 1100 0 1100 -165 0 -165 0 0
-1100z"/>
<path d="M10520 4878 c0 -909 4 -954 91 -1136 102 -212 315 -331 624 -348 317
-19 599 88 741 280 27 36 52 66 56 66 10 0 15 -22 33 -145 9 -60 18 -122 21
-137 l6 -28 134 0 134 0 0 1100 0 1100 -165 0 -165 0 0 -608 c0 -774 -9 -874
-99 -1057 -66 -134 -160 -215 -306 -261 -106 -35 -315 -44 -418 -20 -138 33
-235 106 -288 220 -58 123 -59 145 -59 972 l0 754 -170 0 -170 0 0 -752z"/>
<path d="M7570 4535 l0 -145 500 0 500 0 0 145 0 145 -500 0 -500 0 0 -145z"/>
</g>
</svg>
