<?xml version="1.0" standalone="no"?>
<!DOCTYPE svg PUBLIC "-//W3C//DTD SVG 20010904//EN"
 "http://www.w3.org/TR/2001/REC-SVG-20010904/DTD/svg10.dtd">
<svg version="1.0" xmlns="http://www.w3.org/2000/svg"
 width="2000.000000pt" height="1500.000000pt" viewBox="0 0 2000.000000 1500.000000"
 preserveAspectRatio="xMidYMid meet">

<g transform="translate(0.000000,1500.000000) scale(0.100000,-0.100000)"
fill="#000000" stroke="none">
<path d="M2983 10245 c-78 -21 -130 -51 -191 -108 -63 -61 -97 -115 -123 -198
-18 -59 -19 -138 -19 -2439 0 -2301 1 -2380 19 -2439 26 -84 60 -137 125 -199
61 -57 133 -96 211 -112 34 -7 1916 -9 5955 -7 5466 2 5912 4 6006 19 264 44
430 88 638 170 844 332 1485 1079 1680 1958 52 235 61 327 61 610 0 205 -4
291 -18 380 -142 909 -657 1640 -1457 2068 -250 133 -547 230 -869 285 l-126
21 -5920 2 c-5085 2 -5927 1 -5972 -11z m9512 -288 c219 -66 388 -210 486
-411 80 -163 74 -9 74 -2046 0 -1711 -1 -1819 -18 -1891 -63 -270 -276 -490
-547 -566 -62 -17 -245 -18 -4690 -18 l-4625 0 -47 24 c-61 30 -120 89 -150
149 l-23 47 -3 2225 c-2 1593 0 2240 8 2276 20 94 103 184 200 217 41 15 491
16 4660 14 4422 -2 4618 -3 4675 -20z m2485 -1528 c9 -16 6 -41 -14 -117 -41
-157 -142 -653 -133 -657 1 -1 68 3 150 8 162 10 177 6 177 -43 0 -15 -7 -33
-15 -40 -23 -19 -410 -37 -430 -20 -19 16 -19 43 0 79 8 16 22 68 30 117 59
323 136 655 157 682 17 20 66 15 78 -9z m-321 -120 c34 -12 51 -51 34 -78 -8
-13 -25 -15 -77 -13 -54 3 -73 -1 -100 -17 -42 -27 -71 -27 -89 0 -27 38 4 81
78 107 40 14 115 15 154 1z m720 -13 c12 -11 21 -29 21 -41 0 -37 -22 -47 -88
-39 -51 5 -66 3 -100 -16 -47 -27 -87 -22 -95 12 -9 32 17 66 66 89 55 26 165
23 196 -5z m374 -300 c52 -22 79 -59 84 -113 10 -110 -82 -193 -211 -193 l-62
0 4 -214 c8 -419 -54 -677 -193 -804 -83 -76 -141 -95 -296 -96 -93 -1 -130 3
-142 13 -20 16 -22 66 -4 78 6 4 66 8 133 8 113 1 124 3 180 30 101 51 159
157 200 365 22 115 30 415 14 580 -14 153 -9 166 49 155 96 -17 155 -16 188 4
70 44 48 107 -34 98 -54 -6 -85 14 -81 51 2 16 13 31 28 39 33 17 103 16 143
-1z m-455 -738 c66 -66 -115 -269 -293 -328 -160 -53 -350 -4 -306 79 16 29
46 34 82 15 51 -26 158 -16 239 22 78 37 149 98 175 150 11 22 26 47 34 57 16
20 52 22 69 5z"/>
<path d="M9938 8546 c-82 -28 -148 -56 -148 -61 0 -6 34 -23 75 -38 l75 -28 0
-875 c0 -651 3 -874 11 -874 7 0 31 16 54 35 l43 34 74 -38 c241 -125 527 -42
671 195 63 105 90 201 95 346 5 145 -10 236 -57 333 -127 266 -431 336 -661
152 l-45 -36 -3 454 c-2 425 -3 455 -20 454 -9 -1 -83 -25 -164 -53z m511
-812 c108 -32 193 -153 227 -323 21 -106 15 -344 -11 -436 -37 -131 -108 -236
-188 -277 -51 -26 -151 -35 -201 -18 -49 16 -102 63 -129 114 -22 40 -22 48
-22 450 l0 409 37 30 c76 61 187 81 287 51z"/>
<path d="M4070 8506 c0 -10 24 -15 93 -20 50 -4 100 -9 110 -12 16 -5 17 -56
17 -884 l0 -878 -55 -6 c-30 -3 -80 -9 -110 -12 -30 -4 -55 -11 -55 -16 0 -5
184 -8 478 -6 516 4 522 5 650 63 69 32 162 121 201 194 74 140 82 314 20 447
-28 58 -97 134 -157 173 -55 35 -168 76 -238 87 -54 8 -48 17 24 32 135 30
232 103 289 220 37 74 38 79 38 186 0 101 -3 117 -29 173 -33 73 -108 148
-184 187 -136 69 -286 86 -754 86 -280 0 -338 -2 -338 -14z m867 -60 c79 -36
142 -103 173 -182 21 -51 24 -77 24 -189 1 -108 -3 -142 -21 -201 -28 -89 -81
-152 -155 -185 -49 -21 -69 -23 -260 -27 l-208 -4 0 412 0 412 193 -4 c187 -3
194 -4 254 -32z m34 -844 c116 -46 170 -106 211 -235 25 -78 30 -283 9 -367
-33 -133 -110 -229 -220 -272 -50 -19 -79 -22 -268 -26 l-213 -4 0 467 0 467
213 -4 c189 -4 218 -7 268 -26z"/>
<path d="M5774 8306 c-30 -30 -34 -40 -34 -88 0 -82 46 -128 127 -128 71 1
123 53 123 123 0 81 -48 127 -131 127 -45 0 -55 -4 -85 -34z"/>
<path d="M6387 7920 c-81 -78 -145 -146 -141 -151 3 -5 32 -9 64 -9 l59 0 3
-482 3 -483 27 -46 c48 -81 164 -125 265 -100 64 16 136 64 173 114 42 57 39
77 -7 37 -47 -41 -91 -60 -143 -60 -61 0 -98 24 -123 78 -21 46 -22 60 -25
495 l-3 447 145 0 c134 0 146 1 156 20 10 19 6 20 -142 22 l-153 3 -5 129 -5
128 -148 -142z"/>
<path d="M8057 7918 c-81 -77 -145 -144 -141 -149 3 -5 32 -9 65 -9 l59 0 0
-450 c0 -289 4 -467 11 -500 27 -125 164 -196 301 -156 63 18 137 71 167 119
32 52 25 63 -16 27 -47 -41 -91 -60 -143 -60 -58 0 -95 22 -119 73 -20 42 -21
56 -21 495 l0 452 144 0 c135 0 144 1 149 20 5 19 0 20 -144 20 l-149 0 0 124
c0 69 -4 127 -8 130 -4 2 -74 -59 -155 -136z"/>
<path d="M5785 7777 c-82 -29 -149 -56 -148 -62 1 -5 36 -22 77 -38 l76 -29 0
-468 0 -468 -40 -6 c-22 -3 -58 -9 -80 -12 -22 -3 -40 -10 -40 -15 0 -5 106
-9 250 -9 144 0 250 4 250 9 0 5 -18 12 -40 15 -22 3 -58 9 -80 12 l-40 6 0
559 c0 526 -1 559 -17 558 -10 0 -85 -24 -168 -52z"/>
<path d="M11550 7823 c-195 -33 -352 -177 -414 -383 -26 -86 -32 -259 -12
-360 46 -237 201 -399 410 -432 144 -22 293 26 381 124 41 45 120 186 110 196
-2 3 -29 -23 -60 -57 -39 -41 -78 -71 -123 -93 -63 -31 -73 -33 -177 -33 -100
0 -115 3 -160 27 -50 26 -121 94 -145 138 -45 84 -78 274 -65 375 l6 55 357 0
c196 0 363 4 371 9 11 7 11 23 1 94 -26 186 -116 297 -269 333 -53 13 -156 16
-211 7z m170 -45 c54 -27 85 -71 99 -139 13 -57 14 -178 3 -196 -5 -7 -67 -13
-187 -17 -99 -4 -215 -9 -258 -12 l-78 -5 7 38 c31 173 124 311 230 343 57 17
137 11 184 -12z"/>
<path d="M8605 7791 c3 -5 31 -13 63 -16 31 -4 64 -9 73 -11 14 -4 17 -55 22
-462 4 -289 10 -471 17 -496 16 -53 82 -121 138 -143 31 -12 73 -18 123 -18
65 0 85 5 142 33 42 21 92 58 132 97 l65 64 0 -89 c0 -49 3 -91 8 -93 11 -7
295 126 294 138 -1 5 -32 16 -69 25 l-68 15 -3 483 -2 482 -165 0 c-165 0
-216 -12 -107 -25 31 -3 67 -9 80 -12 l22 -5 0 -442 0 -442 -42 -41 c-63 -60
-121 -86 -193 -87 -81 0 -128 23 -163 83 l-27 46 -3 463 -3 462 -170 0 c-102
0 -168 -4 -164 -9z"/>
<path d="M7080 7284 c-6 -14 -10 -27 -10 -30 0 -7 590 -4 590 4 0 4 3 17 6 30
l6 22 -291 0 -291 0 -10 -26z"/>
</g>
</svg>
